<svg width="1920" height="2617" viewBox="0 0 1920 2617" fill="none" xmlns="http://www.w3.org/2000/svg" xmlns:xlink="http://www.w3.org/1999/xlink">
<defs>
<path d="M1286.32 2219H1282.24V2179.64H1257.4V2219H1253.32V2176.16H1286.32V2219ZM1310.52 2219.84C1307.16 2219.84 1304.22 2219.24 1301.7 2217.98C1299.12 2216.78 1297.02 2215.16 1295.34 2213.12C1293.66 2211.08 1292.4 2208.74 1291.56 2206.04C1290.72 2203.34 1290.3 2200.52 1290.3 2197.58C1290.3 2194.64 1290.72 2191.82 1291.56 2189.12C1292.4 2186.42 1293.66 2184.08 1295.34 2181.98C1297.02 2179.94 1299.12 2178.32 1301.7 2177.06C1304.22 2175.86 1307.16 2175.26 1310.52 2175.26C1313.88 2175.26 1316.82 2175.86 1319.34 2177.06C1321.86 2178.32 1323.96 2179.94 1325.64 2181.98C1327.32 2184.08 1328.58 2186.42 1329.42 2189.12C1330.26 2191.82 1330.68 2194.64 1330.68 2197.58C1330.68 2200.52 1330.26 2203.34 1329.42 2206.04C1328.58 2208.74 1327.32 2211.08 1325.64 2213.12C1323.96 2215.16 1321.86 2216.78 1319.34 2217.98C1316.82 2219.24 1313.88 2219.84 1310.52 2219.84ZM1310.52 2216.42C1313.34 2216.42 1315.74 2215.88 1317.78 2214.8C1319.82 2213.72 1321.5 2212.28 1322.82 2210.48C1324.08 2208.74 1325.04 2206.7 1325.7 2204.48C1326.3 2202.26 1326.6 2199.92 1326.6 2197.58C1326.6 2195.24 1326.3 2192.96 1325.7 2190.68C1325.04 2188.46 1324.08 2186.42 1322.82 2184.62C1321.5 2182.88 1319.82 2181.44 1317.78 2180.36C1315.74 2179.28 1313.34 2178.74 1310.52 2178.74C1307.7 2178.74 1305.24 2179.28 1303.2 2180.36C1301.16 2181.44 1299.48 2182.88 1298.22 2184.62C1296.9 2186.42 1295.94 2188.46 1295.34 2190.68C1294.68 2192.96 1294.38 2195.24 1294.38 2197.58C1294.38 2199.92 1294.68 2202.26 1295.34 2204.48C1295.94 2206.7 1296.9 2208.74 1298.22 2210.48C1299.48 2212.28 1301.16 2213.72 1303.2 2214.8C1305.24 2215.88 1307.7 2216.42 1310.52 2216.42ZM1352.83 2219.84C1349.47 2219.84 1346.53 2219.24 1344.01 2217.98C1341.43 2216.78 1339.33 2215.16 1337.65 2213.12C1335.97 2211.08 1334.71 2208.74 1333.87 2206.04C1333.03 2203.34 1332.61 2200.52 1332.61 2197.58C1332.61 2194.64 1333.03 2191.82 1333.87 2189.12C1334.71 2186.42 1335.97 2184.08 1337.65 2181.98C1339.33 2179.94 1341.43 2178.32 1344.01 2177.06C1346.53 2175.86 1349.47 2175.26 1352.83 2175.26C1354.87 2175.26 1356.85 2175.56 1358.83 2176.16C1360.75 2176.76 1362.49 2177.66 1364.11 2178.8C1365.67 2180 1366.99 2181.44 1368.07 2183.18C1369.09 2184.92 1369.75 2186.9 1370.05 2189.12H1365.97C1365.61 2187.5 1365.01 2186 1364.23 2184.68C1363.39 2183.42 1362.37 2182.34 1361.23 2181.44C1360.03 2180.54 1358.71 2179.88 1357.33 2179.4C1355.89 2178.98 1354.39 2178.74 1352.83 2178.74C1350.01 2178.74 1347.55 2179.28 1345.51 2180.36C1343.47 2181.44 1341.79 2182.88 1340.53 2184.62C1339.21 2186.42 1338.25 2188.46 1337.65 2190.68C1336.99 2192.96 1336.69 2195.24 1336.69 2197.58C1336.69 2199.92 1336.99 2202.26 1337.65 2204.48C1338.25 2206.7 1339.21 2208.74 1340.53 2210.48C1341.79 2212.28 1343.47 2213.72 1345.51 2214.8C1347.55 2215.88 1350.01 2216.42 1352.83 2216.42C1354.81 2216.42 1356.61 2216.06 1358.23 2215.34C1359.85 2214.62 1361.23 2213.66 1362.37 2212.4C1363.51 2211.14 1364.47 2209.7 1365.19 2208.02C1365.91 2206.4 1366.39 2204.6 1366.57 2202.68H1370.65C1370.35 2205.32 1369.75 2207.72 1368.79 2209.82C1367.83 2211.92 1366.57 2213.72 1365.07 2215.22C1363.57 2216.72 1361.77 2217.86 1359.73 2218.64C1357.63 2219.42 1355.35 2219.84 1352.83 2219.84ZM1395.2 2213.72L1409.96 2176.16H1415.96V2219H1411.88V2181.98H1411.76L1397.12 2219H1393.28L1378.58 2181.98H1378.46V2219H1374.38V2176.16H1380.38L1395.2 2213.72ZM1440.02 2219.84C1436.66 2219.84 1433.72 2219.24 1431.2 2217.98C1428.62 2216.78 1426.52 2215.16 1424.84 2213.12C1423.16 2211.08 1421.9 2208.74 1421.06 2206.04C1420.22 2203.34 1419.8 2200.52 1419.8 2197.58C1419.8 2194.64 1420.22 2191.82 1421.06 2189.12C1421.9 2186.42 1423.16 2184.08 1424.84 2181.98C1426.52 2179.94 1428.62 2178.32 1431.2 2177.06C1433.72 2175.86 1436.66 2175.26 1440.02 2175.26C1443.38 2175.26 1446.32 2175.86 1448.84 2177.06C1451.36 2178.32 1453.46 2179.94 1455.14 2181.98C1456.82 2184.08 1458.08 2186.42 1458.92 2189.12C1459.76 2191.82 1460.18 2194.64 1460.18 2197.58C1460.18 2200.52 1459.76 2203.34 1458.92 2206.04C1458.08 2208.74 1456.82 2211.08 1455.14 2213.12C1453.46 2215.16 1451.36 2216.78 1448.84 2217.98C1446.32 2219.24 1443.38 2219.84 1440.02 2219.84ZM1440.02 2216.42C1442.84 2216.42 1445.24 2215.88 1447.28 2214.8C1449.32 2213.72 1451 2212.28 1452.32 2210.48C1453.58 2208.74 1454.54 2206.7 1455.2 2204.48C1455.8 2202.26 1456.1 2199.92 1456.1 2197.58C1456.1 2195.24 1455.8 2192.96 1455.2 2190.68C1454.54 2188.46 1453.58 2186.42 1452.32 2184.62C1451 2182.88 1449.32 2181.44 1447.28 2180.36C1445.24 2179.28 1442.84 2178.74 1440.02 2178.74C1437.2 2178.74 1434.74 2179.28 1432.7 2180.36C1430.66 2181.44 1428.98 2182.88 1427.72 2184.62C1426.4 2186.42 1425.44 2188.46 1424.84 2190.68C1424.18 2192.96 1423.88 2195.24 1423.88 2197.58C1423.88 2199.92 1424.18 2202.26 1424.84 2204.48C1425.44 2206.7 1426.4 2208.74 1427.72 2210.48C1428.98 2212.28 1430.66 2213.72 1432.7 2214.8C1434.74 2215.88 1437.2 2216.42 1440.02 2216.42ZM1459.59 2176.16H1493.49V2179.64H1478.55V2219H1474.47V2179.64H1459.59V2176.16ZM1514.11 2176.16C1516.03 2176.16 1517.77 2176.4 1519.33 2176.94C1520.89 2177.48 1522.21 2178.32 1523.35 2179.34C1524.49 2180.42 1525.33 2181.74 1525.93 2183.24C1526.53 2184.74 1526.83 2186.48 1526.83 2188.4C1526.83 2190.32 1526.53 2192.06 1525.93 2193.56C1525.33 2195.06 1524.49 2196.38 1523.35 2197.4C1522.21 2198.48 1520.89 2199.26 1519.33 2199.8C1517.77 2200.34 1516.03 2200.64 1514.11 2200.64H1499.17V2219H1495.09V2176.16H1514.11ZM1513.21 2197.16C1516.03 2197.16 1518.37 2196.44 1520.11 2195C1521.85 2193.56 1522.75 2191.34 1522.75 2188.4C1522.75 2185.46 1521.85 2183.24 1520.11 2181.8C1518.37 2180.36 1516.03 2179.64 1513.21 2179.64H1499.17V2197.16H1513.21ZM1560.06 2179.64H1534.56V2195.12H1558.44V2198.6H1534.56V2215.52H1560.36V2219H1530.48V2176.16H1560.06V2179.64ZM1559.09 2176.16H1592.99V2179.64H1578.05V2219H1573.97V2179.64H1559.09V2176.16ZM1598.67 2194.28H1613.61C1617.63 2194.28 1620.75 2195.36 1622.97 2197.58C1625.19 2199.8 1626.33 2202.8 1626.33 2206.64C1626.33 2210.48 1625.19 2213.48 1622.97 2215.7C1620.75 2217.92 1617.63 2219 1613.61 2219H1594.59V2176.16H1598.67V2194.28ZM1612.71 2215.52C1615.71 2215.52 1618.05 2214.74 1619.73 2213.12C1621.41 2211.56 1622.25 2209.4 1622.25 2206.64C1622.25 2203.88 1621.41 2201.72 1619.73 2200.1C1618.05 2198.54 1615.71 2197.76 1612.71 2197.76H1598.67V2215.52H1612.71Z" fill="#D0D0D0"/>

</defs>
</svg>
